<svg width="78" height="15" viewBox="0 0 78 15" fill="none" xmlns="http://www.w3.org/2000/svg">
<path d="M73.4542 0H3.5755C3.43799 0 3.30213 0 3.16498 0.0007324C3.05017 0.0014648 2.93628 0.0036623 2.82037 0.005493C2.5708 0.0117188 2.31812 0.0270997 2.06891 0.0717772C1.81788 0.115723 1.5846 0.190796 1.35608 0.306885C1.1316 0.421875 0.926512 0.57129 0.749088 0.748901C0.569643 0.926512 0.420963 1.13232 0.307256 1.35681C0.190616 1.58496 0.116641 1.81933 0.0728791 2.07055C0.0276518 2.31885 0.0120882 2.57007 0.0056795 2.82129C0.0022002 2.93628 0.0018342 3.05164 0 3.16663C0 3.30249 0 3.43872 0 3.57605V11.4243C0 11.5627 0 11.6982 0 11.8345C0.0018342 11.9509 0.0022002 12.0637 0.0056795 12.1802C0.0120882 12.4314 0.0276519 12.6826 0.0728791 12.9309C0.116641 13.1821 0.190616 13.4176 0.307256 13.645C0.420963 13.8684 0.569643 14.0742 0.749088 14.2504C0.926512 14.4294 1.1316 14.5785 1.35608 14.6924C1.5846 14.8096 1.81788 14.8836 2.06891 14.9289C2.31812 14.9736 2.5708 14.9883 2.82037 14.9952C2.93628 14.9978 3.05017 14.9993 3.16498 14.9993C3.30213 15 3.43799 15 3.5755 15H73.4542C73.589 15 73.7259 15 73.8607 14.9993C73.975 14.9993 74.0922 14.9978 74.2064 14.9952C74.4576 14.9883 74.7096 14.9736 74.9564 14.9289C75.2076 14.8836 75.4413 14.8096 75.672 14.6924C75.8961 14.5785 76.1012 14.4294 76.2785 14.2504C76.4571 14.0742 76.6058 13.8684 76.7216 13.645C76.8365 13.4176 76.9113 13.1821 76.9537 12.9309C76.9999 12.6826 77.0145 12.4314 77.0233 12.1802C77.0248 12.0637 77.0248 11.9509 77.0248 11.8345C77.0277 11.6982 77.0277 11.5627 77.0277 11.4243V3.57605C77.0277 3.43872 77.0277 3.30249 77.0248 3.16663C77.0248 3.05164 77.0248 2.93628 77.0233 2.82129C77.0145 2.57007 76.9999 2.31885 76.9537 2.07056C76.9113 1.81934 76.8365 1.58496 76.7216 1.35681C76.6058 1.13232 76.4571 0.926513 76.2785 0.748901C76.1012 0.57129 75.8961 0.421875 75.672 0.306885C75.4413 0.190796 75.2076 0.115723 74.9564 0.0717774C74.7096 0.0270999 74.4576 0.0117189 74.2064 0.0054932C74.0922 0.0036624 73.975 0.001465 73.8607 0.0007326C73.7259 0 73.589 0 73.4542 0Z" fill="#A6A6A6"/>
<path d="M3.16705 14.6719C3.0528 14.6719 2.94128 14.6704 2.82794 14.6679C2.61829 14.662 2.36963 14.6503 2.12701 14.6067C1.89813 14.5653 1.6947 14.4979 1.50574 14.4012C1.31018 14.302 1.1344 14.1738 0.981873 14.02C0.826597 13.8677 0.698973 13.6926 0.599182 13.4963C0.501952 13.307 0.435483 13.1038 0.395565 12.8749C0.349792 12.6226 0.338073 12.3666 0.333127 12.1718C0.330749 12.0927 0.327637 11.8293 0.327637 11.8293V3.16663C0.327637 3.16663 0.330933 2.90735 0.333127 2.83118C0.338073 2.63471 0.349792 2.37891 0.395201 2.12915C0.435303 1.89899 0.501765 1.69592 0.598998 1.50586C0.698603 1.3092 0.826417 1.13324 0.979676 0.98163C1.13476 0.826354 1.31128 0.697815 1.50555 0.598204C1.69818 0.500426 1.90125 0.433594 2.12555 0.394226C2.37805 0.348999 2.63403 0.337647 2.82886 0.332703L3.16723 0.328125H73.8591L74.2015 0.332886C74.3938 0.337647 74.6498 0.348999 74.8984 0.393859C75.1244 0.43341 75.3287 0.50061 75.525 0.599302C75.7173 0.697815 75.8934 0.826354 76.0469 0.980164C76.2003 1.13251 76.3288 1.30939 76.4306 1.50678C76.5273 1.69849 76.5932 1.90155 76.6313 2.12512C76.6749 2.36169 76.6885 2.60468 76.6965 2.83282C76.6976 2.93902 76.6976 3.0531 76.6976 3.16663C76.7006 3.30725 76.7006 3.4411 76.7006 3.57605V11.4243C76.7006 11.5605 76.7006 11.6935 76.6976 11.8275C76.6976 11.9494 76.6976 12.0612 76.6961 12.1761C76.6885 12.397 76.6749 12.6398 76.6321 12.8712C76.5932 13.1012 76.5273 13.3044 76.4296 13.4974C76.3285 13.6923 76.1999 13.8684 76.0487 14.0171C75.8938 14.1738 75.718 14.3016 75.5239 14.4005C75.3295 14.4994 75.131 14.5649 74.8984 14.6067C74.6582 14.6503 74.4095 14.662 74.1975 14.6679C74.0876 14.6704 73.9726 14.6719 73.861 14.6719L73.4545 14.6726L3.16705 14.6719Z" fill="black"/>
<path d="M11.5474 8.92749H8.71924L8.03516 10.8962H6.85254L9.53174 3.47632H10.771L13.4502 10.8962H12.2261L11.5474 8.92749ZM9.01221 7.96069H11.2544L10.1797 4.82397H10.0923L9.01221 7.96069Z" fill="white"/>
<path d="M19.9917 8.09351C19.9917 9.8728 19.0918 10.989 17.6777 10.989C16.8809 10.989 16.248 10.6384 15.9551 10.0476H15.8677V12.7576H14.7622V5.29663H15.8267V6.22241H15.9087C16.248 5.58374 16.9063 5.20386 17.6675 5.20386C19.0918 5.20386 19.9917 6.31421 19.9917 8.09351ZM18.8555 8.09351C18.8555 6.91089 18.2949 6.19604 17.3589 6.19604C16.4282 6.19604 15.8472 6.92651 15.8472 8.09937C15.8472 9.26636 16.4282 9.99585 17.354 9.99585C18.2949 9.99585 18.8555 9.28101 18.8555 8.09351Z" fill="white"/>
<path d="M26.6987 8.09351C26.6987 9.8728 25.7988 10.989 24.3848 10.989C23.5879 10.989 22.9551 10.6384 22.6621 10.0476H22.5747V12.7576H21.4692V5.29663H22.5337V6.22241H22.6157C22.9551 5.58374 23.6133 5.20386 24.3745 5.20386C25.7988 5.20386 26.6987 6.31421 26.6987 8.09351ZM25.5625 8.09351C25.5625 6.91089 25.002 6.19604 24.0659 6.19604C23.1353 6.19604 22.5542 6.92651 22.5542 8.09937C22.5542 9.26636 23.1353 9.99585 24.061 9.99585C25.002 9.99585 25.5625 9.28101 25.5625 8.09351Z" fill="white"/>
<path d="M28.228 3.11108H29.3335V10.8962H28.228V3.11108Z" fill="white"/>
<path d="M35.8799 9.38452C35.6279 10.3865 34.7334 11.0037 33.4526 11.0037C31.8486 11.0037 30.8662 9.90405 30.8662 8.11499C30.8662 6.32495 31.8691 5.18823 33.4478 5.18823C35.0059 5.18823 35.9468 6.25269 35.9468 8.01147V8.39722H31.9927V8.45874C32.0283 9.44116 32.5991 10.0632 33.4839 10.0632C34.1523 10.0632 34.6099 9.82202 34.8154 9.38452H35.8799ZM31.9927 7.57983H34.8208C34.7949 6.69995 34.2603 6.12964 33.4424 6.12964C32.625 6.12964 32.0542 6.70483 31.9927 7.57983Z" fill="white"/>
<path d="M47.0254 10.8962V5.53784H46.9536L44.7783 10.6804H43.9043L41.729 5.53784H41.6572V10.8962H40.5874V3.47632H41.9346L44.2949 9.11206H44.3823L46.748 3.47632H48.0952V10.8962H47.0254Z" fill="white"/>
<path d="M54.6958 10.8962H53.6313V10.0066H53.5435C53.271 10.6443 52.7007 11.0037 51.8521 11.0037C50.6128 11.0037 49.9243 10.2478 49.9243 8.9314V5.29663H51.0288V8.64429C51.0288 9.54858 51.394 9.98022 52.2065 9.98022C53.1011 9.98022 53.5903 9.45093 53.5903 8.57202V5.29663H54.6958V10.8962Z" fill="white"/>
<path d="M58.4976 5.18823C59.7573 5.18823 60.5806 5.77515 60.688 6.76147H59.6294C59.5259 6.35034 59.1255 6.08765 58.4976 6.08765C57.8804 6.08765 57.4126 6.38159 57.4126 6.81812C57.4126 7.1521 57.6958 7.36304 58.3022 7.50171L59.2329 7.71851C60.2974 7.9646 60.7964 8.42261 60.7964 9.24585C60.7964 10.2996 59.814 11.0037 58.4771 11.0037C57.145 11.0037 56.2759 10.4021 56.1782 9.40991H57.2837C57.4233 9.84155 57.8345 10.1091 58.5024 10.1091C59.1919 10.1091 59.6802 9.80054 59.6802 9.35327C59.6802 9.01929 59.4185 8.80347 58.8579 8.66968L57.8804 8.44312C56.8159 8.19116 56.3228 7.71265 56.3228 6.88062C56.3228 5.88843 57.2329 5.18823 58.4976 5.18823Z" fill="white"/>
<path d="M62.1353 3.64038C62.1353 3.25562 62.439 2.96167 62.8501 2.96167C63.2612 2.96167 63.5649 3.25562 63.5649 3.64038C63.5649 4.02124 63.2612 4.31421 62.8501 4.31421C62.439 4.31421 62.1353 4.02124 62.1353 3.64038ZM62.3003 5.29663H63.3999V10.8962H62.3003V5.29663Z" fill="white"/>
<path d="M68.8472 7.12671C68.7183 6.58179 68.2661 6.17554 67.5259 6.17554C66.6001 6.17554 66.0347 6.8855 66.0347 8.07788C66.0347 9.29175 66.605 10.0173 67.5259 10.0173C68.2251 10.0173 68.7026 9.698 68.8472 9.09644H69.9214C69.7778 10.2224 68.9136 11.0037 67.5308 11.0037C65.9009 11.0037 64.9028 9.90405 64.9028 8.07788C64.9028 6.28296 65.895 5.18823 67.5259 5.18823C68.9292 5.18823 69.7778 6.00562 69.9214 7.12671H68.8472Z" fill="white"/>
</svg>
